<?xml version="1.0" encoding="utf-8"?>
<!-- Generator: Adobe Illustrator 16.0.0, SVG Export Plug-In . SVG Version: 6.00 Build 0)  -->
<!DOCTYPE svg PUBLIC "-//W3C//DTD SVG 1.1//EN" "http://www.w3.org/Graphics/SVG/1.1/DTD/svg11.dtd">
<svg version="1.1" id="Layer_1" xmlns="http://www.w3.org/2000/svg" xmlns:xlink="http://www.w3.org/1999/xlink" x="0px" y="0px"
	 width="500px" height="300px" viewBox="0 0 500 300" enable-background="new 0 0 500 300" xml:space="preserve">
<rect fill="#F64161" width="389" height="300"/>
<text transform="matrix(1 0 0 1 90.4702 155.1943)" fill="#FFFFFF" font-family="'DINCondensed-Bold'" font-size="31.4412">Top of the Flops</text>
<circle fill="#2ECC71" cx="281.043" cy="132.195" r="27"/>
<circle fill="#FFFFFF" cx="280.376" cy="159.195" r="10.833"/>
<circle fill="#FFFFFF" cx="258.71" cy="159.195" r="10.833"/>
<circle fill="#FFFFFF" cx="302.042" cy="159.195" r="10.833"/>
<g>
	<circle fill="#F64161" cx="269.543" cy="123.694" r="6.506"/>
	<path fill="#FFFFFF" d="M269.543,125.223c-1.599,0-2.896,1.296-2.896,2.895c0,0.6,0.183,1.157,0.495,1.619
		c0.743,0.296,1.552,0.463,2.4,0.463s1.657-0.167,2.4-0.463c0.312-0.462,0.495-1.019,0.495-1.619
		C272.438,126.52,271.142,125.223,269.543,125.223z"/>
</g>
<g>
	<circle fill="#F64161" cx="291.209" cy="123.694" r="6.506"/>
	<path fill="#FFFFFF" d="M291.209,125.223c-1.599,0-2.896,1.296-2.896,2.895c0,0.6,0.183,1.157,0.495,1.619
		c0.743,0.296,1.552,0.463,2.4,0.463s1.657-0.167,2.4-0.463c0.312-0.462,0.495-1.019,0.495-1.619
		C294.104,126.52,292.808,125.223,291.209,125.223z"/>
</g>
<path fill="none" stroke="#FFFFFF" stroke-width="3" stroke-miterlimit="10" d="M263.293,138.694c0,0,18.082,12.75,34.166,0"/>
<rect x="417.331" y="32.333" fill="#F64161" stroke="#000000" stroke-width="3" stroke-miterlimit="10" width="48.666" height="48.666"/>
<text transform="matrix(1 0 0 1 421.1982 101.0835)"><tspan x="0" y="0" font-family="'HelveticaNeue-Thin'" font-size="12">flop red:</tspan><tspan x="-0.996" y="14.4" font-family="'HelveticaNeue-Thin'" font-size="12">#f64161</tspan></text>
<rect x="417.331" y="134.583" fill="#2ECC71" stroke="#000000" stroke-width="3" stroke-miterlimit="10" width="48.666" height="48.666"/>
<text transform="matrix(1 0 0 1 415.084 203.334)"><tspan x="0" y="0" font-family="'HelveticaNeue-Thin'" font-size="12">flop green:</tspan><tspan x="3.895" y="14.399" font-family="'HelveticaNeue-Thin'" font-size="12">#2ecc71</tspan></text>
</svg>
