<?xml version="1.0" encoding="utf-8"?>
<!-- Generator: Adobe Illustrator 16.0.0, SVG Export Plug-In . SVG Version: 6.00 Build 0)  -->
<!DOCTYPE svg PUBLIC "-//W3C//DTD SVG 1.1//EN" "http://www.w3.org/Graphics/SVG/1.1/DTD/svg11.dtd">
<svg version="1.1" id="Layer_1" xmlns="http://www.w3.org/2000/svg" xmlns:xlink="http://www.w3.org/1999/xlink" x="0px" y="0px"
	 width="1207.55px" height="1236.124px" viewBox="0 0 1207.55 1236.124" enable-background="new 0 0 1207.55 1236.124"
	 xml:space="preserve">
<rect x="867.55" y="24.207" fill="#FFFFFF" stroke="#000000" stroke-miterlimit="10" width="320" height="517.002"/>
<text transform="matrix(1 0 0 1 888.4531 486.0122)" font-family="'HelveticaNeue'" font-size="21.0686">3.lord_master</text>
<rect x="20" y="24.207" fill="#F64161" width="320" height="517.807"/>
<text transform="matrix(1 0 0 1 73.5059 162.3188)" fill="#FFFFFF" font-family="'HelveticaNeue'" font-size="31.3208">top of the flops</text>
<rect x="426.125" y="25.012" fill="#FFFFFF" stroke="#000000" stroke-miterlimit="10" width="320" height="517.001"/>
<rect x="426.125" y="25.012" fill="#F64161" width="320" height="73.291"/>
<text transform="matrix(1 0 0 1 519.8037 69.3237)" fill="#FFFFFF" font-family="'HelveticaNeue'" font-size="21.5171">top of the flops</text>
<rect x="426.125" y="98.302" fill="#FFFFFF" stroke="#000000" stroke-miterlimit="10" width="320" height="130.709"/>
<circle fill="#FFFFFF" stroke="#000000" stroke-miterlimit="10" cx="471.673" cy="172.656" r="30.645"/>
<text transform="matrix(1 0 0 1 479.7695 125.7207)" font-family="'HelveticaNeue'" font-size="14">Most Aesthetically Pleasing Lasagna</text>
<rect x="508.77" y="135.398" fill="#FFFFFF" stroke="#000000" stroke-miterlimit="10" width="220.355" height="67.904"/>
<text transform="matrix(1 0 0 1 514.459 147.3184)" font-family="'HelveticaNeue'" font-size="11">1. kate_norquay</text>
<text transform="matrix(1 0 0 1 512.459 199.4849)" fill="#FF682E" font-family="'HelveticaNeue'" font-size="11">26. lord_master</text>
<text transform="matrix(1 0 0 1 514.459 162.3184)" font-family="'HelveticaNeue'" font-size="11">2. james_brown_98</text>
<text transform="matrix(1 0 0 1 514.459 176.3184)" font-family="'HelveticaNeue'" font-size="11">3. gabby_hello</text>
<rect x="426.125" y="229.012" fill="#FFFFFF" stroke="#000000" stroke-miterlimit="10" width="320" height="130.708"/>
<circle fill="#FFFFFF" stroke="#000000" stroke-miterlimit="10" cx="471.673" cy="303.365" r="30.645"/>
<text transform="matrix(1 0 0 1 503.6465 256.4297)" font-family="'HelveticaNeue'" font-size="14">Wildest collection of Spoons</text>
<rect x="508.77" y="266.107" fill="#FFFFFF" stroke="#000000" stroke-miterlimit="10" width="220.355" height="67.904"/>
<text transform="matrix(1 0 0 1 514.459 278.0269)" font-family="'HelveticaNeue'" font-size="11">1. kate_norquay</text>
<text transform="matrix(1 0 0 1 512.459 330.1938)" fill="#FF682E" font-family="'HelveticaNeue'" font-size="11">26. lord_master</text>
<text transform="matrix(1 0 0 1 514.459 293.0269)" font-family="'HelveticaNeue'" font-size="11">2. james_brown_98</text>
<text transform="matrix(1 0 0 1 514.459 307.0269)" font-family="'HelveticaNeue'" font-size="11">3. gabby_hello</text>
<rect x="426.125" y="483.015" fill="#F64161" width="320" height="58.998"/>
<g>
	<path fill="#FFFFFF" d="M667.437,529.183h46.877C714.313,529.183,692.254,495.542,667.437,529.183z"/>
	<circle fill="#FFFFFF" cx="690.875" cy="505.875" r="12.375"/>
</g>
<g>
	<rect x="469.705" y="493.5" fill="#FFFFFF" width="27.172" height="35.683"/>
	<rect x="471.546" y="497.432" fill="#808080" width="23.141" height="8.028"/>
	<rect x="471.546" y="507.329" fill="#808080" width="23.141" height="2.232"/>
	<rect x="471.546" y="512.596" fill="#808080" width="23.141" height="2.233"/>
	<rect x="471.546" y="517.591" fill="#808080" width="23.141" height="2.233"/>
	<rect x="471.546" y="522.943" fill="#808080" width="23.141" height="2.232"/>
</g>
<g>
	<rect x="927.346" y="491.718" fill="#FFFFFF" width="27.172" height="35.684"/>
	<rect x="929.187" y="495.65" fill="#808080" width="23.141" height="8.029"/>
	<rect x="929.187" y="505.546" fill="#808080" width="23.141" height="2.232"/>
	<rect x="929.187" y="510.814" fill="#808080" width="23.141" height="2.234"/>
	<rect x="929.187" y="515.81" fill="#808080" width="23.141" height="2.232"/>
	<rect x="929.187" y="521.162" fill="#808080" width="23.141" height="2.232"/>
</g>
<rect x="426.125" y="434.011" fill="#2ECC71" width="320" height="52"/>
<text transform="matrix(1 0 0 1 494.5293 463.9019)" fill="#FFFFFF" font-family="'HelveticaNeue'" font-size="21.0521">create new lifeStyle</text>
<rect x="867.55" y="24.207" fill="#F64161" width="320" height="73.291"/>
<text transform="matrix(1 0 0 1 961.2285 61.8521)" fill="#FFFFFF" font-family="'HelveticaNeue'" font-size="21.5171">top of the flops</text>
<text transform="matrix(1 0 0 1 887.1943 120.5132)" font-family="'HelveticaNeue'" font-size="17.1834">Most Aesthetically Pleasing Lasagna</text>
<rect x="867.55" y="137.914" fill="#FFFFFF" stroke="#000000" stroke-miterlimit="10" width="320" height="155.113"/>
<text transform="matrix(1 0 0 1 888.4531 181.4819)" font-family="'HelveticaNeue'" font-size="21.0686">1. kate_norquay</text>
<text transform="matrix(1 0 0 1 910.4521 207.7876)"><tspan x="0" y="0" fill="#808080" font-family="'HelveticaNeue'" font-size="12.8612">‘I baked this lasagna for</tspan><tspan x="0" y="15.434" fill="#808080" font-family="'HelveticaNeue'" font-size="12.8612">dinner for my cat and I was </tspan><tspan x="0" y="30.867" fill="#808080" font-family="'HelveticaNeue'" font-size="12.8612">stoked with the result’</tspan></text>
<rect x="867.55" y="482.21" fill="#F64161" width="320" height="58.998"/>
<g>
	<path fill="#FFFFFF" d="M1108.861,528.378h46.877C1155.738,528.378,1133.679,494.738,1108.861,528.378z"/>
	<circle fill="#FFFFFF" cx="1132.3" cy="505.07" r="12.375"/>
</g>
<rect x="73.506" y="235.207" fill="#FFFFFF" width="212.988" height="37.514"/>
<text transform="matrix(1 0 0 1 84.1001 258.3657)" fill="#808080" font-family="'HelveticaNeue'" font-size="15.9829">username</text>
<rect x="73.506" y="281.302" fill="#FFFFFF" width="212.988" height="37.514"/>
<rect x="73.506" y="327.194" fill="#2ECC71" width="212.988" height="37.514"/>
<text transform="matrix(1 0 0 1 84.2681 304.4614)" fill="#808080" font-family="'HelveticaNeue'" font-size="15.9829">password</text>
<text transform="matrix(1 0 0 1 157.272 351.5894)" fill="#FFFFFF" font-family="'HelveticaNeue'" font-size="16.584">Login!</text>
<text transform="matrix(1.0059 0 0 1 145.1724 493.5005)" fill="#FFFFFF" font-family="'HelveticaNeue'" font-size="20.8574">Sign Up</text>
<circle fill="#FFFFFF" stroke="#000000" stroke-miterlimit="10" cx="1119.924" cy="204.788" r="45.645"/>
<g>
	<rect x="888.453" y="256.429" fill="#FFFFFF" stroke="#000000" stroke-miterlimit="10" width="77.784" height="30.777"/>
	<text transform="matrix(1 0 0 1 910.4521 275.2065)" font-family="'HelveticaNeue'" font-size="14">cool!</text>
</g>
<g>
	<rect x="984.074" y="256.429" fill="#FFFFFF" stroke="#000000" stroke-miterlimit="10" width="73.593" height="30.777"/>
	<text transform="matrix(1 0 0 1 1002.7852 275.2065)" font-family="'HelveticaNeue'" font-size="14">stupid</text>
</g>
<g>
	<rect x="938.916" y="493.601" fill="#FFFFFF" width="27.172" height="35.684"/>
	<rect x="940.757" y="497.533" fill="#808080" width="23.141" height="8.029"/>
	<rect x="940.757" y="507.429" fill="#808080" width="23.141" height="2.232"/>
	<rect x="940.757" y="512.697" fill="#808080" width="23.141" height="2.234"/>
	<rect x="940.757" y="517.693" fill="#808080" width="23.141" height="2.232"/>
	<rect x="940.757" y="523.044" fill="#808080" width="23.141" height="2.232"/>
</g>
<rect x="867.55" y="293.027" fill="#FFFFFF" stroke="#000000" stroke-miterlimit="10" width="320" height="155.113"/>
<text transform="matrix(1 0 0 1 888.4531 336.5952)" font-family="'HelveticaNeue'" font-size="21.0686">2. james_brown</text>
<text transform="matrix(1 0 0 1 910.4521 362.9009)"><tspan x="0" y="0" fill="#808080" font-family="'HelveticaNeue'" font-size="12.8612">‘I don’t often cook a</tspan><tspan x="0" y="15.434" fill="#808080" font-family="'HelveticaNeue'" font-size="12.8612">lasgana, but this one really</tspan><tspan x="0" y="30.867" fill="#808080" font-family="'HelveticaNeue'" font-size="12.8612">came out quite nicely!’</tspan></text>
<circle fill="#FFFFFF" stroke="#000000" stroke-miterlimit="10" cx="1119.924" cy="359.902" r="45.645"/>
<g>
	<rect x="888.453" y="411.542" fill="#FFFFFF" stroke="#000000" stroke-miterlimit="10" width="77.784" height="30.777"/>
	<text transform="matrix(1 0 0 1 910.4521 430.3198)" font-family="'HelveticaNeue'" font-size="14">cool!</text>
</g>
<g>
	<rect x="984.074" y="411.542" fill="#FFFFFF" stroke="#000000" stroke-miterlimit="10" width="73.593" height="30.777"/>
	<text transform="matrix(1 0 0 1 1002.7852 430.3198)" font-family="'HelveticaNeue'" font-size="14">stupid</text>
</g>
<rect x="867.55" y="431.011" fill="#2ECC71" width="320" height="52"/>
<text transform="matrix(1 0 0 1 981.3418 460.9019)" fill="#FFFFFF" font-family="'HelveticaNeue'" font-size="21.0521">Compete!</text>
<rect x="427.879" y="636.205" fill="#FFFFFF" stroke="#000000" stroke-miterlimit="10" width="320" height="517.002"/>
<rect x="427.879" y="636.205" fill="#F64161" width="320" height="73.291"/>
<text transform="matrix(1 0 0 1 521.5576 673.8511)" fill="#FFFFFF" font-family="'HelveticaNeue'" font-size="21.5171">top of the flops</text>
<rect x="427.879" y="1094.208" fill="#F64161" width="320" height="58.998"/>
<g>
	<path fill="#FFFFFF" d="M669.19,1140.376h46.877C716.067,1140.376,694.008,1106.736,669.19,1140.376z"/>
	<circle fill="#FFFFFF" cx="692.629" cy="1117.068" r="12.375"/>
</g>
<g>
	<rect x="471.459" y="1104.694" fill="#FFFFFF" width="27.172" height="35.683"/>
	<rect x="473.3" y="1108.625" fill="#808080" width="23.141" height="8.028"/>
	<rect x="473.3" y="1118.522" fill="#808080" width="23.141" height="2.232"/>
	<rect x="473.3" y="1123.79" fill="#808080" width="23.141" height="2.233"/>
	<rect x="473.3" y="1128.785" fill="#808080" width="23.141" height="2.233"/>
	<rect x="473.3" y="1134.136" fill="#808080" width="23.141" height="2.232"/>
</g>
<rect x="427.879" y="1042.208" fill="#2ECC71" width="320" height="52"/>
<text transform="matrix(1 0 0 1 574.2783 1073.7104)" fill="#FFFFFF" font-family="'HelveticaNeue'" font-size="29.7138">go!</text>
<text transform="matrix(1 0 0 1 532.5449 739.7905)" font-family="'HelveticaNeue'" font-size="15.8946">Create a Lifestyle</text>
<rect x="451.756" y="788.037" fill="none" stroke="#000000" stroke-miterlimit="10" width="274" height="34"/>
<text transform="matrix(1 0 0 1 451.7559 773.3706)" font-family="'HelveticaNeue'" font-size="14">What is this lifestyle’s name?</text>
<rect x="450.879" y="860.706" fill="none" stroke="#000000" stroke-miterlimit="10" width="274" height="34"/>
<text transform="matrix(1 0 0 1 450.8789 846.0396)" font-family="'HelveticaNeue'" font-size="14">Briefly describe what this lifestlye is about</text>
<text transform="matrix(1 0 0 1 901.8789 897.0757)" font-family="'HelveticaNeue'" font-size="14">Briefly describe what this lifestlye is about</text>
<text transform="matrix(1 0 0 1 457.7559 808.7036)" fill="#808080" font-family="'HelveticaNeue'" font-size="14">Name</text>
<text transform="matrix(1 0 0 1 457.7559 881.3706)" fill="#808080" font-family="'HelveticaNeue'" font-size="14">Description</text>
<rect x="450.879" y="937.373" fill="none" stroke="#000000" stroke-miterlimit="10" width="274" height="34"/>
<text transform="matrix(1 0 0 1 450.8789 922.7065)" font-family="'HelveticaNeue'" font-size="14">Give the Lifestlye  a display pic! (optional)</text>
<text transform="matrix(1 0 0 1 457.7559 958.0376)" fill="#808080" font-family="'HelveticaNeue'" font-size="14">Image</text>
<rect x="867.55" y="636.205" fill="#FFFFFF" stroke="#000000" stroke-miterlimit="10" width="320" height="517.002"/>
<rect x="867.55" y="636.205" fill="#F64161" width="320" height="73.291"/>
<text transform="matrix(1 0 0 1 961.2285 673.8501)" fill="#FFFFFF" font-family="'HelveticaNeue'" font-size="21.5171">top of the flops</text>
<rect x="867.55" y="1094.208" fill="#F64161" width="320" height="58.998"/>
<g>
	<path fill="#FFFFFF" d="M1108.861,1140.376h46.877C1155.738,1140.376,1133.679,1106.736,1108.861,1140.376z"/>
	<circle fill="#FFFFFF" cx="1132.3" cy="1117.068" r="12.375"/>
</g>
<g>
	<rect x="911.13" y="1104.693" fill="#FFFFFF" width="27.172" height="35.684"/>
	<rect x="912.971" y="1108.625" fill="#808080" width="23.141" height="8.029"/>
	<rect x="912.971" y="1118.521" fill="#808080" width="23.141" height="2.232"/>
	<rect x="912.971" y="1123.789" fill="#808080" width="23.141" height="2.234"/>
	<rect x="912.971" y="1128.785" fill="#808080" width="23.141" height="2.232"/>
	<rect x="912.971" y="1134.136" fill="#808080" width="23.141" height="2.232"/>
</g>
<rect x="867.55" y="1042.207" fill="#2ECC71" width="320" height="52"/>
<text transform="matrix(1 0 0 1 988.0977 1072.5093)" fill="#FFFFFF" font-family="'HelveticaNeue'" font-size="23.3289">compete!</text>
<text transform="matrix(1 0 0 1 991.2158 739.7905)" font-family="'HelveticaNeue'" font-size="15.8946">Flopping in</text>
<text transform="matrix(1 0 0 1 887.1943 773.3706)" font-family="'HelveticaNeue'" font-size="17.5507">Most Aesthetically Pleasing Lasagna</text>
<path fill="none" stroke="#000000" stroke-miterlimit="10" d="M1165,869.371c0,6.627-5.373,12-12,12H902.1c-6.627,0-12-5.373-12-12
	v-64.328c0-6.627,5.373-12,12-12H1153c6.627,0,12,5.373,12,12V869.371z"/>
<text transform="matrix(1 0 0 1 1014.9941 841.2065)" font-family="'HelveticaNeue'" font-size="55.8526">+</text>
<text transform="matrix(1 0 0 1 890.0996 915.2065)" font-family="'HelveticaNeue'" font-size="14">Describe your entry</text>
<rect x="892.778" y="924.539" fill="none" stroke="#000000" stroke-miterlimit="10" width="283.222" height="58.668"/>
<text transform="matrix(1 0 0 1 901.8789 944.2065)" fill="#808080" font-family="'HelveticaNeue'" font-size="14">Description</text>
<rect x="20" y="632.594" fill="#FFFFFF" stroke="#000000" stroke-miterlimit="10" width="320" height="517.001"/>
<g>
	<rect x="79.796" y="1100.106" fill="#FFFFFF" width="27.172" height="35.683"/>
	<rect x="81.637" y="1104.038" fill="#808080" width="23.141" height="8.028"/>
	<rect x="81.637" y="1113.934" fill="#808080" width="23.141" height="2.232"/>
	<rect x="81.637" y="1119.202" fill="#808080" width="23.141" height="2.233"/>
	<rect x="81.637" y="1124.197" fill="#808080" width="23.141" height="2.233"/>
	<rect x="81.637" y="1129.548" fill="#808080" width="23.141" height="2.232"/>
</g>
<rect x="20" y="632.594" fill="#F64161" width="320" height="73.29"/>
<text transform="matrix(1 0 0 1 113.6787 670.2397)" fill="#FFFFFF" font-family="'HelveticaNeue'" font-size="21.5171">top of the flops</text>
<text transform="matrix(1 0 0 1 135.1436 731.5659)" font-family="'HelveticaNeue'" font-size="17.1834">Your Profile</text>
<text transform="matrix(1 0 0 1 40.9033 789.8687)" font-family="'HelveticaNeue'" font-size="21.0686">kate_norquay</text>
<text transform="matrix(1 0 0 1 62.9023 816.1753)"><tspan x="0" y="0" fill="#808080" font-family="'HelveticaNeue'" font-size="12.8612">‘I’m totally so the best</tspan><tspan x="0" y="15.434" fill="#808080" font-family="'HelveticaNeue'" font-size="12.8612">at so many useless things!</tspan><tspan x="0" y="30.867" fill="#808080" font-family="'HelveticaNeue'" font-size="12.8612">I love this app!’</tspan></text>
<rect x="20" y="1090.597" fill="#F64161" width="320" height="58.998"/>
<g>
	<path fill="#FFFFFF" d="M261.312,1136.765h46.877C308.188,1136.765,286.129,1103.125,261.312,1136.765z"/>
	<circle fill="#FFFFFF" cx="284.75" cy="1113.457" r="12.375"/>
</g>
<circle fill="#FFFFFF" stroke="#000000" stroke-miterlimit="10" cx="272.375" cy="813.175" r="45.645"/>
<g>
	<rect x="91.366" y="1101.989" fill="#FFFFFF" width="27.172" height="35.683"/>
	<rect x="93.207" y="1105.92" fill="#808080" width="23.141" height="8.028"/>
	<rect x="93.207" y="1115.817" fill="#808080" width="23.141" height="2.232"/>
	<rect x="93.207" y="1121.084" fill="#808080" width="23.141" height="2.233"/>
	<rect x="93.207" y="1126.08" fill="#808080" width="23.141" height="2.233"/>
	<rect x="93.207" y="1131.431" fill="#808080" width="23.141" height="2.232"/>
</g>
<rect x="57.333" y="871.875" fill="none" stroke="#000000" stroke-miterlimit="10" width="260.687" height="57.334"/>
<text transform="matrix(1 0 0 1 191.0312 895.8501)"><tspan x="0" y="0" font-family="'HelveticaNeue'" font-size="14">Most Aesthetically</tspan><tspan x="2.205" y="16.8" font-family="'HelveticaNeue'" font-size="14">Pleasing Lasagna</tspan></text>
<text transform="matrix(1 0 0 1 89.9126 910.2065)" font-family="'HelveticaNeue'" font-size="30.6751">#1</text>
<rect x="57.333" y="943.183" fill="none" stroke="#000000" stroke-miterlimit="10" width="260.687" height="57.334"/>
<text transform="matrix(1 0 0 1 191.8154 967.1577)"><tspan x="0" y="0" font-family="'HelveticaNeue'" font-size="14">Wildest Collection</tspan><tspan x="24.366" y="16.8" font-family="'HelveticaNeue'" font-size="14">of Spoons</tspan></text>
<text transform="matrix(1 0 0 1 81.3848 980.9243)" font-family="'HelveticaNeue'" font-size="30.6751">#67</text>
<rect x="57.333" y="1013.542" fill="none" stroke="#000000" stroke-miterlimit="10" width="260.687" height="57.334"/>
<text transform="matrix(1 0 0 1 166.7871 1037.5161)"><tspan x="0" y="0" font-family="'HelveticaNeue'" font-size="14">Can make an omelette</tspan><tspan x="-7.749" y="16.8" font-family="'HelveticaNeue'" font-size="14">while carrying small child</tspan></text>
<text transform="matrix(1 0 0 1 72.8569 1052.2876)" font-family="'HelveticaNeue'" font-size="30.6751">#104</text>
<text transform="matrix(1 0 0 1 40.4434 571.2065)" font-family="'HelveticaNeue'" font-size="14">Log in and sign up here, which will take you to -&gt;</text>
<text transform="matrix(1 0 0 1 390 571.8735)"><tspan x="0" y="0" font-family="'HelveticaNeue'" font-size="14">This homepage which will show all of the different life styles</tspan><tspan x="0" y="16.8" font-family="'HelveticaNeue'" font-size="14">as well as the top three on the leaderboard, and where you are</tspan><tspan x="0" y="33.6" font-family="'HelveticaNeue'" font-size="14">on the leaderboard</tspan></text>
<text transform="matrix(1 0 0 1 802 571.8726)"><tspan x="0" y="0" font-family="'HelveticaNeue'" font-size="14">This is the homepage for a specific lifestyle, this is where you</tspan><tspan x="0" y="16.801" font-family="'HelveticaNeue'" font-size="14">can vote for your favourite entries!</tspan></text>
<text transform="matrix(1 0 0 1 40.9033 1187.2065)"><tspan x="0" y="0" font-family="'HelveticaNeue'" font-size="14">This is the profile that will show the user’s bio,</tspan><tspan x="0" y="16.8" font-family="'HelveticaNeue'" font-size="14">a picture, and their most prolific lifeStyles</tspan></text>
<text transform="matrix(1 0 0 1 471.459 1187.2065)"><tspan x="0" y="0" font-family="'HelveticaNeue'" font-size="14">This screen is for creating a new lifestyle</tspan><tspan x="0" y="16.8" font-family="'HelveticaNeue'" font-size="14">It POSTS to the api to create a new lifestyle</tspan></text>
<text transform="matrix(1 0 0 1 867.5498 1181.2065)"><tspan x="0" y="0" font-family="'HelveticaNeue'" font-size="14">This is the screen where you upload your entry into </tspan><tspan x="0" y="16.8" font-family="'HelveticaNeue'" font-size="14">the lifestyle</tspan></text>
</svg>
